<svg width="50" height="50" viewBox="0 0 50 50" fill="none" xmlns="http://www.w3.org/2000/svg">
<path d="M12 3C7.04 3 3 7.04 3 12V38C3 42.96 7.04 47 12 47H38C42.96 47 47 42.96 47 38V12C47 7.04 42.96 3 38 3H12ZM38 8H41C41.55 8 42 8.45 42 9V12C42 12.55 41.55 13 41 13H38C37.45 13 37 12.55 37 12V9C37 8.45 37.45 8 38 8ZM25 10C30.33 10 35.0197 12.8 37.6797 17H42V37C42 39.76 39.76 42 37 42H13C10.24 42 8 39.76 8 37V17H12.3203C14.9803 12.8 19.67 10 25 10ZM25 12C17.83 12 12 17.83 12 25C12 32.17 17.83 38 25 38C32.17 38 38 32.17 38 25C38 17.83 32.17 12 25 12ZM25 16C29.96 16 34 20.04 34 25C34 29.96 29.96 34 25 34C20.04 34 16 29.96 16 25C16 20.04 20.04 16 25 16Z" fill="#88A1A1"/>
</svg>
